<svg width="17" height="15" viewBox="0 0 17 15" fill="none" xmlns="http://www.w3.org/2000/svg">
<path fill-rule="evenodd" clip-rule="evenodd" d="M5.15303 9.48207C4.35774 9.48207 3.71303 8.83736 3.71303 8.04207C3.71303 7.24678 4.35774 6.60207 5.15303 6.60207C5.27998 6.60207 5.4031 6.6185 5.52037 6.64935L7.35654 4.81318C7.32359 4.69226 7.30599 4.565 7.30599 4.43363C7.30599 3.63834 7.9507 2.99363 8.74599 2.99363C9.54128 2.99363 10.186 3.63834 10.186 4.43363C10.186 4.82367 10.0309 5.1775 9.77907 5.43681L10.5339 8.07869C11.1641 8.23217 11.632 8.80037 11.632 9.47785C11.632 10.2731 10.9873 10.9179 10.192 10.9179C9.51942 10.9179 8.95456 10.4568 8.79623 9.8335L6.15296 9.07828C5.89394 9.32829 5.54144 9.48207 5.15303 9.48207ZM6.55075 7.69432L9.13762 8.43342L8.39386 5.83027C8.38909 5.82907 8.38434 5.82785 8.37959 5.8266L6.54273 7.66346C6.54552 7.6737 6.54819 7.68399 6.55075 7.69432Z" fill="#9B4100"/>
<path fill-rule="evenodd" clip-rule="evenodd" d="M0.00585938 7.32209L4.00586 0.12207H12.0532L16.0532 7.32209L12.0532 14.5221H4.00586L0.00585938 7.32209ZM1.65316 7.32209L4.85316 13.0821H11.2059L14.4059 7.32208L11.2059 1.56207H4.85316L1.65316 7.32209Z" fill="#9B4100"/>
</svg>
