<svg width="16" height="16" viewBox="0 0 16 16" fill="none" xmlns="http://www.w3.org/2000/svg">
<path d="M14.5001 11.2182V13.2182C14.5008 13.4039 14.4628 13.5877 14.3884 13.7578C14.314 13.9279 14.2049 14.0806 14.0681 14.2061C13.9313 14.3316 13.7698 14.4272 13.5939 14.4867C13.418 14.5462 13.2317 14.5683 13.0467 14.5515C10.9953 14.3286 9.02474 13.6276 7.29341 12.5049C5.68263 11.4813 4.31697 10.1157 3.29341 8.50488C2.16673 6.76569 1.46557 4.78555 1.24674 2.72488C1.23008 2.54053 1.25199 2.35472 1.31108 2.1793C1.37016 2.00387 1.46512 1.84268 1.58992 1.70596C1.71472 1.56925 1.86661 1.46002 2.03594 1.38523C2.20526 1.31044 2.3883 1.27172 2.57341 1.27155H4.57341C4.89695 1.26836 5.21061 1.38293 5.45592 1.5939C5.70123 1.80487 5.86146 2.09785 5.90674 2.41822C5.99116 3.05826 6.14771 3.6867 6.37341 4.29155C6.46311 4.53016 6.48252 4.78949 6.42935 5.0388C6.37618 5.28811 6.25265 5.51696 6.07341 5.69822L5.22674 6.54488C6.17578 8.21391 7.55771 9.59585 9.22674 10.5449L10.0734 9.69822C10.2547 9.51897 10.4835 9.39545 10.7328 9.34228C10.9821 9.28911 11.2415 9.30852 11.4801 9.39822C12.0849 9.62392 12.7134 9.78047 13.3534 9.86488C13.6773 9.91057 13.973 10.0737 14.1844 10.3232C14.3959 10.5727 14.5082 10.8913 14.5001 11.2182Z" stroke="white" stroke-width="1.33333" stroke-linecap="round" stroke-linejoin="round"/>
</svg>
