<svg width="33" height="33" viewBox="0 0 33 33" fill="none" xmlns="http://www.w3.org/2000/svg">
<g clip-path="url(#clip0_2454_2324)">
<path d="M8.5 29.7448V5.74479C8.5 5.03755 8.78095 4.35927 9.28105 3.85917C9.78115 3.35908 10.4594 3.07813 11.1667 3.07812H21.8333C22.5406 3.07813 23.2189 3.35908 23.719 3.85917C24.219 4.35927 24.5 5.03755 24.5 5.74479V29.7448H8.5Z" stroke="black" stroke-width="2.66667" stroke-linecap="round" stroke-linejoin="round"/>
<path d="M8.49984 16.4111H5.83317C5.12593 16.4111 4.44765 16.6921 3.94755 17.1922C3.44746 17.6923 3.1665 18.3706 3.1665 19.0778V27.0778C3.1665 27.785 3.44746 28.4633 3.94755 28.9634C4.44765 29.4635 5.12593 29.7445 5.83317 29.7445H8.49984" stroke="black" stroke-width="2.66667" stroke-linecap="round" stroke-linejoin="round"/>
<path d="M24.5 12.4111H27.1667C27.8739 12.4111 28.5522 12.6921 29.0523 13.1922C29.5524 13.6923 29.8333 14.3706 29.8333 15.0778V27.0778C29.8333 27.785 29.5524 28.4633 29.0523 28.9634C28.5522 29.4635 27.8739 29.7445 27.1667 29.7445H24.5" stroke="black" stroke-width="2.66667" stroke-linecap="round" stroke-linejoin="round"/>
<path d="M13.8335 8.41113H19.1668" stroke="black" stroke-width="2.66667" stroke-linecap="round" stroke-linejoin="round"/>
<path d="M13.8335 13.7441H19.1668" stroke="black" stroke-width="2.66667" stroke-linecap="round" stroke-linejoin="round"/>
<path d="M13.8335 19.0781H19.1668" stroke="black" stroke-width="2.66667" stroke-linecap="round" stroke-linejoin="round"/>
<path d="M13.8335 24.4111H19.1668" stroke="black" stroke-width="2.66667" stroke-linecap="round" stroke-linejoin="round"/>
</g>
<defs>
<clipPath id="clip0_2454_2324">
<rect width="32" height="32" fill="white" transform="translate(0.5 0.411133)"/>
</clipPath>
</defs>
</svg>
