<svg width="33" height="33" viewBox="0 0 33 33" fill="none" xmlns="http://www.w3.org/2000/svg">
<path d="M3.1665 9.74479L9.0465 3.86479C9.29458 3.61523 9.5896 3.41724 9.91455 3.28223C10.2395 3.14721 10.588 3.07785 10.9398 3.07813H22.0598C22.4117 3.07785 22.7602 3.14721 23.0851 3.28223C23.4101 3.41724 23.7051 3.61523 23.9532 3.86479L29.8332 9.74479" stroke="black" stroke-width="2.66667" stroke-linecap="round" stroke-linejoin="round"/>
<path d="M5.8335 16.4111V27.0778C5.8335 27.785 6.11445 28.4633 6.61454 28.9634C7.11464 29.4635 7.79292 29.7445 8.50016 29.7445H24.5002C25.2074 29.7445 25.8857 29.4635 26.3858 28.9634C26.8859 28.4633 27.1668 27.785 27.1668 27.0778V16.4111" stroke="black" stroke-width="2.66667" stroke-linecap="round" stroke-linejoin="round"/>
<path d="M20.5 29.7441V24.4108C20.5 23.7036 20.219 23.0253 19.719 22.5252C19.2189 22.0251 18.5406 21.7441 17.8333 21.7441H15.1667C14.4594 21.7441 13.7811 22.0251 13.281 22.5252C12.781 23.0253 12.5 23.7036 12.5 24.4108V29.7441" stroke="black" stroke-width="2.66667" stroke-linecap="round" stroke-linejoin="round"/>
<path d="M3.1665 9.74414H29.8332" stroke="black" stroke-width="2.66667" stroke-linecap="round" stroke-linejoin="round"/>
<path d="M29.8332 9.74414V13.7441C29.8332 14.4514 29.5522 15.1297 29.0521 15.6298C28.552 16.1299 27.8737 16.4108 27.1665 16.4108C26.3875 16.3679 25.6435 16.0731 25.0465 15.5708C24.8874 15.4558 24.6961 15.394 24.4998 15.394C24.3036 15.394 24.1123 15.4558 23.9532 15.5708C23.3562 16.0731 22.6122 16.3679 21.8332 16.4108C21.0542 16.3679 20.3101 16.0731 19.7132 15.5708C19.5541 15.4558 19.3628 15.394 19.1665 15.394C18.9702 15.394 18.7789 15.4558 18.6198 15.5708C18.0229 16.0731 17.2789 16.3679 16.4998 16.4108C15.7208 16.3679 14.9768 16.0731 14.3798 15.5708C14.2207 15.4558 14.0295 15.394 13.8332 15.394C13.6369 15.394 13.4456 15.4558 13.2865 15.5708C12.6895 16.0731 11.9455 16.3679 11.1665 16.4108C10.3875 16.3679 9.64348 16.0731 9.0465 15.5708C8.88741 15.4558 8.69612 15.394 8.49984 15.394C8.30355 15.394 8.11226 15.4558 7.95317 15.5708C7.3562 16.0731 6.61219 16.3679 5.83317 16.4108C5.12593 16.4108 4.44765 16.1299 3.94755 15.6298C3.44746 15.1297 3.1665 14.4514 3.1665 13.7441V9.74414" stroke="black" stroke-width="2.66667" stroke-linecap="round" stroke-linejoin="round"/>
</svg>
