<svg width="24" height="25" viewBox="0 0 24 25" fill="none" xmlns="http://www.w3.org/2000/svg">
<path d="M20 10.25C20 16.25 12 22.25 12 22.25C12 22.25 4 16.25 4 10.25C4 8.12827 4.84285 6.09344 6.34315 4.59315C7.84344 3.09285 9.87827 2.25 12 2.25C14.1217 2.25 16.1566 3.09285 17.6569 4.59315C19.1571 6.09344 20 8.12827 20 10.25Z" stroke="black" stroke-width="2" stroke-linecap="round" stroke-linejoin="round"/>
<path d="M12 13.25C13.6569 13.25 15 11.9069 15 10.25C15 8.59315 13.6569 7.25 12 7.25C10.3431 7.25 9 8.59315 9 10.25C9 11.9069 10.3431 13.25 12 13.25Z" stroke="black" stroke-width="2" stroke-linecap="round" stroke-linejoin="round"/>
</svg>
