<svg width="192" height="86" viewBox="0 0 192 86" fill="none" xmlns="http://www.w3.org/2000/svg">
<path d="M51.0768 78.2876V60.1388H57.0752C62.9197 60.1388 67.8158 62.6253 67.8158 69.2645C67.8158 75.1346 63.0222 78.2876 57.6135 78.2876H51.0768ZM55.0757 63.8301V74.5963H57.1521C60.869 74.5963 63.6631 73.1865 63.6631 69.0594C63.6631 65.4963 60.8177 63.8301 57.434 63.8301H55.0757ZM72.4757 78.2876V60.1388H84.6518V63.8301H76.4746V67.5214H84.0366V71.2126H76.4746V78.2876H72.4757ZM104.256 62.3433L101.18 64.8554C100.385 63.907 99.2317 63.3687 97.7449 63.3687C94.7201 63.3687 92.49 65.8295 92.49 69.2132C92.49 72.5969 94.7201 75.0577 97.6167 75.0577C99.2317 75.0577 100.539 74.34 101.359 73.1096L104.692 75.596C103.179 77.7493 100.616 78.749 98.1294 78.749C92.4643 78.749 88.3373 75.0321 88.3373 69.2132C88.3373 63.3943 92.4643 59.6774 98.1294 59.6774C100.154 59.6774 102.718 60.3695 104.256 62.3433Z" fill="#42C7A8"/>
<path fill-rule="evenodd" clip-rule="evenodd" d="M25.0386 10.8431C21.2588 12.1499 18.4536 14.8381 16.5544 18.9726C15.6987 20.8352 15.6923 20.9683 15.5828 39.1277L15.4722 57.4079H22.0422H28.6122L28.7145 50.9396L28.8173 44.4712L31.0139 48.9709C32.2217 51.4458 33.6118 54.3564 34.1026 55.4393L34.995 57.4079H42.1613H49.3278L48.6071 56.1893C48.2112 55.5192 46.0719 51.8999 43.8539 48.1467L39.821 41.3229L42.7143 35.9599C44.3054 33.0103 46.1893 29.5425 46.9002 28.2534L48.1932 25.9097L41.1301 25.915L34.067 25.9202L31.4421 32.1959L28.8173 38.4715L28.719 24.3161L28.6208 10.1606L27.7816 10.173C27.32 10.1798 26.0856 10.4813 25.0386 10.8431ZM80.3584 10.6714C75.0952 12.0907 71.7538 16.6999 71.128 23.4038L70.894 25.9097H68.6981H66.5026V31.1594V36.4091H68.7525H71.0024V46.9085V57.4079H77.5645H84.1266V46.9085V36.4091H86.9389H89.7513V31.1594V25.9097H86.8898H84.0284L84.2518 24.5036C84.5661 22.5274 86.2895 21.035 88.2574 21.035H89.7513V15.8254C89.7513 11.4209 89.6598 10.5806 89.1581 10.3883C88.1377 9.99678 82.1452 10.1895 80.3584 10.6714ZM96.3134 10.6901C94.1299 11.6606 92.3675 14.4871 92.3844 16.992C92.3941 18.4548 93.4808 20.9653 94.4929 21.8645C94.8907 22.2173 95.8372 22.7659 96.5961 23.0832C101.673 25.2044 106.764 20.8258 105.716 15.2386C105.409 13.6067 103.513 11.3572 101.862 10.6672C100.334 10.0287 97.7777 10.0392 96.3134 10.6901ZM51.1285 41.6588V57.4079H57.6906H64.2527V41.6588V25.9097H57.6906H51.1285V41.6588ZM92.7511 41.6588V57.4079H99.3132H105.875V41.6588V25.9097H99.3132H92.7511V41.6588ZM108.125 26.1715C108.125 26.3158 110.489 33.6452 113.379 42.4594L118.632 58.4852L117.857 60.5559C116.778 63.441 115.274 64.6394 112.295 64.99C111.508 65.0826 111.239 65.6076 110.005 69.4774L108.606 73.8601L110.522 74.7094C113.317 75.9484 118.399 75.9431 121.163 74.6982C123.549 73.6239 126.21 70.8318 127.937 67.5916C128.824 65.9286 142.248 26.9297 142.248 26.0177C142.248 25.9581 139.233 25.9097 135.547 25.9097H128.845L128.604 27.5034C127.289 36.1924 125.235 48.395 125.109 48.269C125.022 48.1816 124.369 44.5075 123.656 40.1038C122.186 31.0162 121.942 30.0949 120.576 28.4716C118.898 26.4775 117.125 25.9274 112.344 25.918C110.024 25.9135 108.125 26.0275 108.125 26.1715ZM150.413 26.4681C148.332 26.9964 145.38 28.3269 144.023 29.3483C143.406 29.8129 143.479 30.039 145.095 32.6594C146.05 34.2061 146.961 35.6119 147.12 35.7833C147.279 35.9547 148.131 35.7263 149.014 35.2756C151.192 34.1649 154.999 34.3254 156.795 35.6041C157.854 36.3578 159.122 38.4569 159.122 39.4547C159.122 39.6358 157.088 39.7839 154.603 39.7839C144.521 39.7839 139.825 42.5952 139.881 48.5978C139.92 52.6633 142.269 55.7232 146.238 56.877C148.543 57.5471 151.366 57.3839 153.087 56.4817C154.322 55.8349 156.243 53.7988 156.971 52.3667L157.532 51.2624L158.401 53.9604L159.27 56.658H165.219H171.169L171.045 47.3773C170.929 38.7678 170.859 37.9432 170.07 35.9768C168.348 31.6822 164.495 28.151 160.087 26.8284C157.282 25.987 152.945 25.8254 150.413 26.4681ZM154.771 43.3196C153.334 43.9451 151.998 45.7559 151.998 47.0773C151.998 47.6289 152.406 48.4756 152.918 48.9878C155.297 51.3674 158.747 48.7531 158.747 44.5709V42.7838L157.341 42.7984C156.568 42.8066 155.411 43.041 154.771 43.3196Z" fill="black"/>
<circle cx="99.0924" cy="16.5352" r="7.12459" fill="#42C7A8"/>
</svg>
