<svg width="24" height="25" viewBox="0 0 24 25" fill="none" xmlns="http://www.w3.org/2000/svg">
<g clip-path="url(#clip0_2696_14833)">
<path d="M22 17.1701V20.1701C22.0011 20.4486 21.9441 20.7243 21.8325 20.9794C21.7209 21.2346 21.5573 21.4637 21.3521 21.652C21.1468 21.8402 20.9046 21.9836 20.6407 22.0728C20.3769 22.162 20.0974 22.1952 19.82 22.1701C16.7428 21.8357 13.787 20.7842 11.19 19.1001C8.77382 17.5648 6.72533 15.5163 5.18999 13.1001C3.49997 10.4913 2.44824 7.52109 2.11999 4.4301C2.095 4.15356 2.12787 3.87486 2.21649 3.61172C2.30512 3.34859 2.44756 3.10679 2.63476 2.90172C2.82196 2.69665 3.0498 2.53281 3.30379 2.42062C3.55777 2.30843 3.83233 2.25036 4.10999 2.2501H7.10999C7.5953 2.24532 8.06579 2.41718 8.43376 2.73363C8.80173 3.05008 9.04207 3.48954 9.10999 3.9701C9.23662 4.93016 9.47144 5.87282 9.80999 6.7801C9.94454 7.13802 9.97366 7.52701 9.8939 7.90098C9.81415 8.27494 9.62886 8.61821 9.35999 8.8901L8.08999 10.1601C9.51355 12.6636 11.5864 14.7365 14.09 16.1601L15.36 14.8901C15.6319 14.6212 15.9751 14.4359 16.3491 14.3562C16.7231 14.2764 17.1121 14.3056 17.47 14.4401C18.3773 14.7786 19.3199 15.0135 20.28 15.1401C20.7658 15.2086 21.2094 15.4533 21.5265 15.8276C21.8437 16.2019 22.0122 16.6797 22 17.1701Z" stroke="black" stroke-width="2" stroke-linecap="round" stroke-linejoin="round"/>
</g>
<defs>
<clipPath id="clip0_2696_14833">
<rect width="24" height="24" fill="white" transform="translate(0 0.25)"/>
</clipPath>
</defs>
</svg>
