<svg width="16" height="15" viewBox="0 0 16 15" fill="none" xmlns="http://www.w3.org/2000/svg">
<path d="M8.1209 1.43116C4.86744 1.43116 2.22999 4.06861 2.22999 7.32207V7.97662H0.920898V7.32207C0.920898 3.34562 4.14445 0.12207 8.1209 0.12207C10.5568 0.12207 12.7093 1.3317 14.0118 3.18154V0.776616H15.3209V5.35843H10.7391V4.04934H13.02C11.9627 2.46989 10.1626 1.43116 8.1209 1.43116Z" fill="#96006D"/>
<path d="M15.3209 6.66752V7.32207C15.3209 11.2985 12.0973 14.5221 8.12086 14.5221C5.68495 14.5221 3.53254 13.3125 2.22999 11.4627V13.8675H0.920898V9.28571H5.50272V10.5948H3.22179C4.27904 12.1742 6.07917 13.213 8.12086 13.213C11.3743 13.213 14.0118 10.5755 14.0118 7.32207V6.66752H15.3209Z" fill="#96006D"/>
</svg>
