<svg width="16" height="15" viewBox="0 0 16 15" fill="none" xmlns="http://www.w3.org/2000/svg">
<path d="M1.77754 0.358398L5.92572 4.50658V2.0275H7.30844V6.86704H2.4689V5.48431H4.94798L0.799805 1.33613L1.77754 0.358398Z" fill="#7C5900"/>
<path d="M15.1998 1.33613L11.0516 5.48431L13.5307 5.48431V6.86704L8.69117 6.86703V2.0275H10.0739V4.50657L14.2221 0.358398L15.1998 1.33613Z" fill="#7C5900"/>
<path d="M2.4689 8.24976H7.30844V13.0893H5.92572V10.6102L1.77754 14.7584L0.799805 13.7807L4.94798 9.63249H2.4689V8.24976Z" fill="#7C5900"/>
<path d="M8.69117 8.24976H13.5307V9.63249H11.0516L15.1998 13.7807L14.2221 14.7584L10.0739 10.6102V13.0893H8.69117V8.24976Z" fill="#7C5900"/>
</svg>
