<svg width="24" height="25" viewBox="0 0 24 25" fill="none" xmlns="http://www.w3.org/2000/svg">
<g clip-path="url(#clip0_2696_14850)">
<path d="M12 22.25C17.5228 22.25 22 17.7728 22 12.25C22 6.72715 17.5228 2.25 12 2.25C6.47715 2.25 2 6.72715 2 12.25C2 17.7728 6.47715 22.25 12 22.25Z" stroke="black" stroke-width="2" stroke-linecap="round" stroke-linejoin="round"/>
<path d="M12 2.25C9.43223 4.94615 8 8.52674 8 12.25C8 15.9733 9.43223 19.5538 12 22.25C14.5678 19.5538 16 15.9733 16 12.25C16 8.52674 14.5678 4.94615 12 2.25Z" stroke="black" stroke-width="2" stroke-linecap="round" stroke-linejoin="round"/>
<path d="M2 12.25H22" stroke="black" stroke-width="2" stroke-linecap="round" stroke-linejoin="round"/>
</g>
<defs>
<clipPath id="clip0_2696_14850">
<rect width="24" height="24" fill="white" transform="translate(0 0.25)"/>
</clipPath>
</defs>
</svg>
