<svg width="139" height="54" viewBox="0 0 139 54" fill="none" xmlns="http://www.w3.org/2000/svg">
<path d="M69.0521 28.8632C70.9238 26.7035 71.9518 23.9435 71.9518 21.074C71.9518 14.5288 66.6664 9.20312 60.1659 9.20312C53.6653 9.20312 48.3799 14.5288 48.3799 21.074C48.3799 27.6192 53.6696 32.9536 60.1659 32.9536C62.1009 32.9536 64.0259 32.4684 65.7262 31.5455L66.9731 32.5648H72.1318L69.0536 28.8646L69.0521 28.8632ZM63.6515 22.3094L60.353 25.0579L62.8784 28.1246C62.0131 28.4658 61.1017 28.6386 60.1659 28.6386C56.0279 28.6386 52.6618 25.2436 52.6618 21.074C52.6618 16.9045 56.0279 13.5167 60.1659 13.5167C64.3038 13.5167 67.6699 16.9073 67.6699 21.074C67.6699 22.6707 67.1847 24.1883 66.2647 25.4812L63.6515 22.3108V22.3094Z" fill="white"/>
<path d="M96.3335 19.7288C95.8411 15.9336 93.4223 9.56259 84.837 9.2012C81.897 9.0745 79.0851 10.1803 76.901 12.3025C74.5988 14.5471 73.2814 17.6858 73.2814 20.9181C73.2814 27.482 78.1982 32.7616 84.4713 32.9373C84.765 32.9459 85.0515 32.9502 85.3251 32.9502C88.4767 32.9502 90.6594 32.4118 94.5439 29.3566L94.6677 29.2601L91.9422 25.6923L91.8184 25.7888C88.6135 28.3098 87.4286 28.4999 84.5922 28.4193C81.5111 28.3314 78.8979 26.2049 78.0326 23.1022L96.5495 23.0302C96.669 22.1735 96.4257 20.4242 96.3335 19.7274V19.7288ZM91.9264 18.5856H78.4991C79.4853 15.6643 82.1561 13.7192 85.2128 13.7192C88.2694 13.7192 90.9402 15.6643 91.9264 18.5856Z" fill="white"/>
<path d="M117.047 17.9511V32.4928H112.552V17.4069C112.552 11.3973 102.228 11.9415 102.228 18.4334V32.4914H97.7335V10.1087H102.228V12.7838C103.526 10.5089 106.025 9.2002 108.294 9.2002C113.577 9.2002 117.048 12.3432 117.048 17.9497L117.047 17.9511Z" fill="white"/>
<path d="M137.939 17.3939C137.939 14.9981 136.803 12.729 134.808 11.2173C129.327 7.06352 119.408 12.1574 119.408 12.1574L121.049 15.957C121.702 15.7756 128.908 12.4137 131.577 14.9391C132.432 15.7497 132.964 16.6322 132.847 17.725V19.0856C132.545 19.0295 132.221 18.9733 131.875 18.9128L131.663 18.874C129.979 18.5875 127.988 18.2894 125.655 18.4579C120.861 18.8005 118.052 22.4691 118.199 25.674C118.402 29.8537 121.119 32.5144 125.33 32.618C125.485 32.6223 125.645 32.6267 125.809 32.6267C128.276 32.6267 130.981 32.2322 132.838 31.9514V32.4625H137.914V18.0907C137.931 17.8618 137.939 17.6271 137.939 17.3982V17.3939ZM132.847 24.2069V26.8618C132.847 27.0735 132.687 27.2563 132.48 27.2909C130.661 27.5774 127.707 28.018 125.412 27.9661C124.133 27.9316 122.941 27.6019 122.838 25.4537C122.803 24.6906 123.822 23.2581 125.986 23.1011C128.634 22.9154 131.374 23.5 132.517 23.785C132.712 23.8325 132.846 24.0053 132.846 24.2054L132.847 24.2069Z" fill="white"/>
<path d="M19.6126 0.677734C8.78116 0.677734 0 9.4589 0 20.2903C0 31.1217 8.78116 39.9029 19.6126 39.9029C30.444 39.9029 39.2251 31.1217 39.2251 20.2903C39.2251 9.4589 30.4454 0.677734 19.6126 0.677734ZM15.1306 29.011H9.83219C9.9157 26.1156 9.10079 23.5758 8.3118 21.1153C7.27804 17.8916 6.30188 14.8422 7.08223 10.9462H12.4612C11.8623 14.0115 12.1992 17.1444 13.4446 20.047C14.6756 22.915 15.2414 25.927 15.1277 29.0139H15.1291L15.1306 29.011ZM23.1976 32.5643H17.666C18.9272 28.8944 18.7833 24.9465 17.2456 21.3658C15.4142 17.0983 15.0514 12.4939 16.1917 8.02201H21.6887C20.0618 12.4896 21.2381 16.4922 22.3755 20.3666C23.4927 24.169 24.6446 28.0982 23.199 32.5629H23.1976V32.5643ZM32.4006 27.6893H27.0835C27.1944 25.3497 26.7653 22.9827 25.8324 20.8072C24.3105 17.2639 23.8009 13.4067 24.3494 9.62303H29.678C28.8876 13.0641 29.93 16.3496 30.9392 19.533C31.7801 22.1865 32.6497 24.9264 32.4006 27.6893Z" fill="white"/>
<path d="M52.0002 51.0502V42.1436H54.9058C55.8465 42.1436 56.6648 42.3335 57.3623 42.7115C58.0599 43.0896 58.5994 43.6132 58.9828 44.277C59.3662 44.9426 59.5561 45.7147 59.5561 46.5898C59.5561 47.4648 59.3644 48.2298 58.9828 48.9025C58.6012 49.577 58.0599 50.1024 57.3623 50.4804C56.6648 50.8585 55.8465 51.0484 54.9058 51.0484H52.0002V51.0502ZM53.6261 49.616H54.9413C55.5465 49.616 56.0719 49.49 56.5139 49.2398C56.9559 48.9895 57.3002 48.6381 57.5487 48.1872C57.7954 47.7364 57.9196 47.2057 57.9196 46.5915C57.9196 45.9774 57.7954 45.4361 57.5487 44.9888C57.302 44.5433 56.9576 44.1954 56.5139 43.9487C56.0719 43.7019 55.5465 43.5777 54.9413 43.5777H53.6261V49.616Z" fill="#FF7F00"/>
<path d="M63.204 51.1942C62.5348 51.1942 61.9491 51.0434 61.4468 50.7399C60.9445 50.4363 60.554 50.0263 60.2753 49.508C59.9967 48.9898 59.8564 48.4165 59.8564 47.7864C59.8564 47.1563 59.9984 46.5528 60.2807 46.0469C60.5629 45.5411 60.9498 45.1399 61.4397 44.8453C61.9296 44.5506 62.478 44.4033 63.0833 44.4033C63.5927 44.4033 64.0418 44.4867 64.4287 44.6536C64.8156 44.8204 65.144 45.0529 65.4156 45.3476C65.6871 45.6422 65.8948 45.9795 66.0368 46.3575C66.1806 46.7356 66.2516 47.1456 66.2516 47.584C66.2516 47.6958 66.2462 47.8112 66.2338 47.9301C66.2214 48.049 66.2001 48.1538 66.1681 48.2407H61.1468V47.0444H65.2842L64.5423 47.6071C64.6133 47.2397 64.5955 46.9131 64.489 46.6273C64.3825 46.3416 64.2068 46.1126 63.9637 45.9457C63.7205 45.7789 63.4276 45.6955 63.0851 45.6955C62.7425 45.6955 62.4674 45.7771 62.2118 45.9404C61.9562 46.1037 61.7627 46.3433 61.6314 46.6575C61.5 46.9717 61.4503 47.3533 61.4823 47.7988C61.4503 48.1981 61.5036 48.5496 61.6438 48.8566C61.7823 49.1637 61.9899 49.4015 62.265 49.5684C62.5402 49.7352 62.8561 49.8187 63.2164 49.8187C63.5767 49.8187 63.8802 49.7423 64.1305 49.5915C64.3808 49.4406 64.5796 49.2365 64.7216 48.9809L65.9889 49.6021C65.8611 49.9127 65.6623 50.1878 65.3907 50.4275C65.1191 50.6671 64.7996 50.8534 64.4287 50.9883C64.0577 51.1232 63.6495 51.1925 63.204 51.1925V51.1942Z" fill="#FF7F00"/>
<path d="M68.6798 51.0502L66.1221 44.5469H67.8313L69.6844 49.664H69.0507L70.9162 44.5469H72.6254L70.0678 51.0502H68.6815H68.6798Z" fill="#FF7F00"/>
<path d="M72.8875 43.8173V42.1436H74.453V43.8173H72.8875ZM72.8875 51.0502V44.5468H74.453V51.0502H72.8875Z" fill="#FF7F00"/>
<path d="M78.4345 51.1933C77.7884 51.1933 77.2098 51.0442 76.6951 50.7442C76.1803 50.446 75.7757 50.0396 75.481 49.5248C75.1864 49.0101 75.0391 48.4315 75.0391 47.7854C75.0391 47.1393 75.1864 46.5624 75.481 46.0513C75.7757 45.5419 76.1803 45.1389 76.6951 44.8443C77.2098 44.5497 77.7884 44.4023 78.4345 44.4023C78.896 44.4023 79.3273 44.484 79.7249 44.6473C80.1243 44.8106 80.4686 45.0342 80.7597 45.3164C81.0508 45.5987 81.2602 45.9359 81.388 46.3264L80.0124 46.9245C79.8935 46.5979 79.6912 46.3353 79.409 46.1347C79.1267 45.9341 78.8019 45.8365 78.4345 45.8365C78.092 45.8365 77.7867 45.9199 77.5204 46.0868C77.2524 46.2536 77.0447 46.4861 76.8921 46.7808C76.7412 47.0754 76.6649 47.4144 76.6649 47.7978C76.6649 48.1812 76.7412 48.5202 76.8921 48.8148C77.043 49.1095 77.2524 49.3402 77.5204 49.5088C77.7867 49.6757 78.092 49.7591 78.4345 49.7591C78.809 49.7591 79.1356 49.6597 79.4143 49.4609C79.6929 49.2621 79.8935 48.9941 80.0124 48.6604L81.388 49.2817C81.2602 49.6491 81.0525 49.9774 80.7668 50.2685C80.4792 50.5596 80.1367 50.7868 79.7391 50.9501C79.3397 51.1134 78.9066 51.195 78.4363 51.195L78.4345 51.1933Z" fill="#FF7F00"/>
<path d="M85.0585 51.1933C84.3893 51.1933 83.8036 51.0424 83.3013 50.7389C82.799 50.4354 82.4085 50.0254 82.1298 49.5071C81.8512 48.9888 81.7109 48.4155 81.7109 47.7854C81.7109 47.1553 81.8529 46.5518 82.1352 46.0459C82.4174 45.5401 82.8043 45.1389 83.2942 44.8443C83.7841 44.5497 84.3325 44.4023 84.9378 44.4023C85.4472 44.4023 85.8962 44.4858 86.2832 44.6526C86.6701 44.8195 86.9985 45.052 87.27 45.3466C87.5416 45.6413 87.7493 45.9785 87.8913 46.3566C88.035 46.7346 88.106 47.1446 88.106 47.583C88.106 47.6949 88.1007 47.8102 88.0883 47.9292C88.0759 48.0481 88.0546 48.1528 88.0226 48.2398H83.0013V47.0435H87.1387L86.3968 47.6061C86.4678 47.2387 86.45 46.9121 86.3435 46.6263C86.237 46.3406 86.0613 46.1116 85.8181 45.9448C85.575 45.7779 85.2821 45.6945 84.9396 45.6945C84.597 45.6945 84.3219 45.7761 84.0663 45.9394C83.8107 46.1027 83.6172 46.3424 83.4859 46.6565C83.3545 46.9707 83.3048 47.3523 83.3368 47.7978C83.3048 48.1972 83.3581 48.5486 83.4983 48.8557C83.6367 49.1627 83.8444 49.4006 84.1195 49.5674C84.3946 49.7343 84.7106 49.8177 85.0709 49.8177C85.4312 49.8177 85.7347 49.7414 85.985 49.5905C86.2353 49.4396 86.4341 49.2355 86.576 48.9799L87.8433 49.6011C87.7156 49.9118 87.5168 50.1869 87.2452 50.4265C86.9736 50.6661 86.6541 50.8525 86.2832 50.9874C85.9122 51.1223 85.504 51.1915 85.0585 51.1915V51.1933Z" fill="#FF7F00"/>
<path d="M90.9766 51.0504V45.9457H89.8282V44.547H90.9766V44.3323C90.9766 43.8388 91.0777 43.4182 91.2819 43.0703C91.4842 42.7242 91.77 42.4579 92.1374 42.2751C92.5048 42.0923 92.9379 42 93.4402 42C93.536 42 93.6408 42.0053 93.7579 42.0178C93.8733 42.0302 93.9709 42.0444 94.0508 42.0603V43.4111C93.9709 43.3951 93.8981 43.3845 93.8289 43.3809C93.7615 43.3774 93.6993 43.3756 93.6443 43.3756C93.2929 43.3756 93.0231 43.4537 92.8314 43.6081C92.6397 43.7643 92.5439 44.0057 92.5439 44.3323V44.547H95.3891V45.9457H92.5439V51.0504H90.9784H90.9766ZM94.8016 51.0504V44.547H96.3795V51.0504H94.8016Z" fill="#FF7F00"/>
<path d="M97.085 51.0495V44.5461H98.5564V45.8258L98.4375 45.5987C98.5883 45.2082 98.8386 44.9118 99.1847 44.7076C99.5308 44.5053 99.9355 44.4023 100.399 44.4023C100.862 44.4023 101.302 44.5053 101.671 44.713C102.042 44.9206 102.33 45.2099 102.538 45.5791C102.745 45.9501 102.848 46.3779 102.848 46.8642V51.0495H101.283V47.2351C101.283 46.9476 101.228 46.7009 101.116 46.4932C101.004 46.2856 100.851 46.124 100.656 46.0087C100.461 45.8933 100.232 45.8347 99.9692 45.8347C99.7065 45.8347 99.4865 45.8933 99.2877 46.0087C99.0889 46.124 98.9327 46.2856 98.8209 46.4932C98.709 46.7009 98.654 46.9476 98.654 47.2351V51.0495H97.0885H97.085Z" fill="#FF7F00"/>
<path d="M105.551 51.1936C105.096 51.1936 104.702 51.1173 104.367 50.9664C104.032 50.8156 103.772 50.5972 103.59 50.315C103.407 50.0328 103.314 49.7027 103.314 49.3282C103.314 48.9536 103.394 48.6484 103.554 48.3661C103.714 48.0839 103.961 47.8461 104.296 47.6544C104.631 47.4627 105.054 47.3278 105.563 47.2479L107.691 46.9018V48.0981L105.861 48.4087C105.551 48.4638 105.32 48.5649 105.167 48.7069C105.017 48.8507 104.94 49.0371 104.94 49.2696C104.94 49.5021 105.025 49.6707 105.198 49.8021C105.368 49.9334 105.581 49.9991 105.837 49.9991C106.163 49.9991 106.453 49.9299 106.703 49.7896C106.953 49.6512 107.148 49.4577 107.289 49.2092C107.427 48.9625 107.498 48.6909 107.498 48.3963V46.7225C107.498 46.4439 107.388 46.2096 107.17 46.0232C106.95 45.8368 106.662 45.7428 106.303 45.7428C105.968 45.7428 105.672 45.8333 105.412 46.0126C105.153 46.1918 104.963 46.4297 104.844 46.7243L103.565 46.1031C103.693 45.7605 103.893 45.4641 104.168 45.2121C104.443 44.9618 104.768 44.763 105.143 44.621C105.517 44.479 105.924 44.4062 106.362 44.4062C106.896 44.4062 107.367 44.5039 107.773 44.6991C108.18 44.8944 108.497 45.1659 108.723 45.512C108.95 45.8581 109.063 46.2628 109.063 46.7261V51.0534H107.581V49.9405L107.917 49.9174C107.75 50.1961 107.549 50.4304 107.319 50.6168C107.088 50.8031 106.825 50.9469 106.529 51.0481C106.234 51.1475 105.908 51.1972 105.549 51.1972L105.551 51.1936Z" fill="#FF7F00"/>
<path d="M109.913 51.0505V44.5471H111.385V45.8268L111.266 45.5996C111.416 45.2091 111.667 44.9127 112.013 44.7086C112.359 44.5063 112.764 44.4033 113.227 44.4033C113.69 44.4033 114.13 44.5063 114.5 44.7139C114.87 44.9216 115.158 45.2109 115.366 45.5801C115.573 45.9511 115.676 46.3788 115.676 46.8652V51.0505H114.111V47.2361C114.111 46.9486 114.056 46.7019 113.944 46.4942C113.832 46.2865 113.68 46.125 113.484 46.0096C113.289 45.8943 113.06 45.8357 112.797 45.8357C112.535 45.8357 112.315 45.8943 112.116 46.0096C111.917 46.125 111.761 46.2865 111.649 46.4942C111.537 46.7019 111.482 46.9486 111.482 47.2361V51.0505H109.917H109.913Z" fill="#FF7F00"/>
<path d="M119.537 51.1933C118.891 51.1933 118.312 51.0442 117.798 50.7442C117.283 50.446 116.878 50.0396 116.584 49.5248C116.289 49.0101 116.142 48.4315 116.142 47.7854C116.142 47.1393 116.289 46.5624 116.584 46.0513C116.878 45.5419 117.283 45.1389 117.798 44.8443C118.312 44.5497 118.891 44.4023 119.537 44.4023C119.999 44.4023 120.43 44.484 120.827 44.6473C121.227 44.8106 121.571 45.0342 121.862 45.3164C122.153 45.5987 122.363 45.9359 122.491 46.3264L121.115 46.9245C120.996 46.5979 120.794 46.3353 120.512 46.1347C120.229 45.9341 119.904 45.8365 119.537 45.8365C119.194 45.8365 118.889 45.9199 118.623 46.0868C118.355 46.2536 118.147 46.4861 117.995 46.7808C117.844 47.0754 117.767 47.4144 117.767 47.7978C117.767 48.1812 117.844 48.5202 117.995 48.8148C118.146 49.1095 118.355 49.3402 118.623 49.5088C118.889 49.6757 119.194 49.7591 119.537 49.7591C119.912 49.7591 120.238 49.6597 120.517 49.4609C120.795 49.2621 120.996 48.9941 121.115 48.6604L122.491 49.2817C122.363 49.6491 122.155 49.9774 121.869 50.2685C121.582 50.5596 121.239 50.7868 120.842 50.9501C120.442 51.1134 120.009 51.195 119.539 51.195L119.537 51.1933Z" fill="#FF7F00"/>
<path d="M123.076 43.8173V42.1436H124.642V43.8173H123.076ZM123.076 51.0502V44.5468H124.642V51.0502H123.076Z" fill="#FF7F00"/>
<path d="M125.492 51.0505V44.5471H126.964V45.8268L126.845 45.5996C126.996 45.2091 127.246 44.9127 127.592 44.7086C127.938 44.5063 128.343 44.4033 128.806 44.4033C129.269 44.4033 129.709 44.5063 130.079 44.7139C130.45 44.9216 130.737 45.2109 130.945 45.5801C131.152 45.9511 131.255 46.3788 131.255 46.8652V51.0505H129.69V47.2361C129.69 46.9486 129.635 46.7019 129.523 46.4942C129.411 46.2865 129.259 46.125 129.063 46.0096C128.868 45.8943 128.639 45.8357 128.376 45.8357C128.114 45.8357 127.894 45.8943 127.695 46.0096C127.496 46.125 127.34 46.2865 127.228 46.4942C127.116 46.7019 127.061 46.9486 127.061 47.2361V51.0505H125.496H125.492Z" fill="#FF7F00"/>
<path d="M135.138 53.6806C134.652 53.6806 134.201 53.6007 133.788 53.441C133.372 53.2812 133.017 53.0593 132.717 52.7771C132.417 52.4949 132.201 52.1612 132.066 51.7796L133.525 51.2294C133.621 51.5329 133.811 51.7778 134.093 51.9642C134.375 52.1506 134.725 52.2446 135.138 52.2446C135.458 52.2446 135.738 52.1843 135.981 52.0654C136.225 51.9465 136.414 51.7725 136.549 51.5453C136.684 51.3181 136.753 51.0448 136.753 50.7271V49.245L137.052 49.6035C136.828 49.994 136.53 50.2887 136.155 50.4875C135.781 50.6862 135.355 50.7856 134.876 50.7856C134.27 50.7856 133.727 50.6472 133.25 50.3668C132.772 50.0881 132.398 49.7047 132.126 49.2184C131.855 48.732 131.72 48.1871 131.72 47.5801C131.72 46.9731 131.855 46.4211 132.126 45.9418C132.398 45.4626 132.767 45.0863 133.237 44.8112C133.708 44.5361 134.242 44.3994 134.84 44.3994C135.326 44.3994 135.754 44.5006 136.125 44.7047C136.496 44.9088 136.805 45.2017 137.052 45.5833L136.837 45.9773V44.5432H138.319V50.7253C138.319 51.2915 138.182 51.7974 137.907 52.2429C137.632 52.6884 137.258 53.0398 136.784 53.2954C136.31 53.551 135.761 53.677 135.14 53.677L135.138 53.6806ZM135.067 49.3408C135.403 49.3408 135.696 49.2681 135.946 49.119C136.196 48.9717 136.395 48.7658 136.537 48.5031C136.681 48.2404 136.752 47.9369 136.752 47.5943C136.752 47.2517 136.677 46.9589 136.53 46.6909C136.382 46.4228 136.184 46.2152 135.932 46.0625C135.681 45.9117 135.392 45.8353 135.065 45.8353C134.739 45.8353 134.444 45.9117 134.182 46.0625C133.919 46.2134 133.713 46.4228 133.566 46.6909C133.418 46.9571 133.344 47.2588 133.344 47.5943C133.344 47.9298 133.418 48.228 133.566 48.4907C133.713 48.7533 133.917 48.961 134.176 49.1119C134.435 49.2627 134.732 49.3391 135.067 49.3391V49.3408Z" fill="#FF7F00"/>
</svg>
