<svg width="782" height="434" viewBox="0 0 782 434" fill="none" xmlns="http://www.w3.org/2000/svg">
<path d="M170.484 182.992V6.08877C170.484 2.25705 167.377 -0.849174 163.546 -0.849174H88.7151C39.9975 -0.849174 0.504089 38.6443 0.504089 87.3619V214.723C0.504089 220.744 5.38531 225.625 11.4066 225.625H136.785C141.164 225.625 144.714 229.175 144.714 233.554V404.029C144.714 420.451 158.027 433.763 174.448 433.763H214.676C231.644 433.763 247.804 426.515 259.088 413.843L408.658 245.877C420.13 232.994 436.559 225.625 453.81 225.625H470.797C476.819 225.625 481.7 230.506 481.7 236.528V404.029C481.7 420.451 495.012 433.763 511.434 433.763H557.358C569.761 433.763 581.577 428.482 589.85 419.241L743.386 247.738C755.983 233.667 773.976 225.625 792.862 225.625H870.225V5.5932C870.225 1.21409 866.675 -2.33588 862.296 -2.33588H778.831C741.454 -2.33588 705.862 13.6506 681.034 41.59L543.517 196.344C540.132 200.153 535.278 202.333 530.182 202.333H528.779C516.736 202.333 506.974 192.571 506.974 180.528V5.5932C506.974 1.21409 503.424 -2.33588 499.045 -2.33588H442.554C405.053 -2.33588 369.356 13.7561 344.522 41.8556L211.219 192.689C205.799 198.822 198.009 202.333 189.825 202.333C179.143 202.333 170.484 193.674 170.484 182.992Z" fill="white" fill-opacity="0.2"/>
</svg>
