<svg width="146" height="56" viewBox="0 0 146 56" fill="none" xmlns="http://www.w3.org/2000/svg">
<path d="M72.7276 29.6853C74.6989 27.4107 75.7816 24.5037 75.7816 21.4815C75.7816 14.588 70.2149 8.97882 63.3683 8.97882C56.5218 8.97882 50.9551 14.588 50.9551 21.4815C50.9551 28.3751 56.5263 33.9934 63.3683 33.9934C65.4064 33.9934 67.4338 33.4823 69.2247 32.5103L70.5379 33.5839H75.9711L72.7291 29.6868L72.7276 29.6853ZM67.0395 22.7826L63.5655 25.6774L66.2252 28.9073C65.3139 29.2667 64.354 29.4487 63.3683 29.4487C59.0102 29.4487 55.4649 25.873 55.4649 21.4815C55.4649 17.09 59.0102 13.522 63.3683 13.522C67.7265 13.522 71.2718 17.0931 71.2718 21.4815C71.2718 23.1632 70.7608 24.7615 69.7918 26.1232L67.0395 22.7841V22.7826Z" fill="#3D0148"/>
<path d="M101.461 20.0652C100.942 16.068 98.3946 9.35792 89.3523 8.9773C86.2558 8.84386 83.2943 10.0085 80.9939 12.2436C78.5691 14.6077 77.1816 17.9134 77.1816 21.3178C77.1816 28.231 82.3601 33.7917 88.9671 33.9767C89.2764 33.9858 89.5782 33.9903 89.8663 33.9903C93.1857 33.9903 95.4846 33.4232 99.5758 30.2054L99.7062 30.1038L96.8357 26.3461L96.7053 26.4477C93.3298 29.103 92.0818 29.3031 89.0945 29.2182C85.8494 29.1257 83.0971 26.886 82.1858 23.6181L101.688 23.5423C101.814 22.6401 101.558 20.7976 101.461 20.0637V20.0652ZM96.819 18.8612H82.6771C83.7158 15.7844 86.5287 13.7358 89.748 13.7358C92.9674 13.7358 95.7803 15.7844 96.819 18.8612Z" fill="#3D0148"/>
<path d="M123.276 18.1928V33.5085H118.541V17.6196C118.541 11.2902 107.669 11.8634 107.669 18.7008V33.5069H102.935V9.93298H107.669V12.7505C109.035 10.3545 111.668 8.97614 114.057 8.97614C119.621 8.97614 123.277 12.2864 123.277 18.1913L123.276 18.1928Z" fill="#3D0148"/>
<path d="M145.281 17.6058C145.281 15.0825 144.084 12.6926 141.982 11.1004C136.209 6.72561 125.763 12.0906 125.763 12.0906L127.492 16.0924C128.179 15.9013 135.768 12.3606 138.58 15.0203C139.48 15.8741 140.04 16.8036 139.917 17.9545V19.3876C139.599 19.3284 139.257 19.2693 138.893 19.2056L138.671 19.1646C136.896 18.8629 134.799 18.549 132.343 18.7264C127.293 19.0873 124.335 22.9511 124.489 26.3266C124.703 30.7287 127.564 33.531 132 33.6402C132.164 33.6447 132.332 33.6493 132.505 33.6493C135.102 33.6493 137.952 33.2338 139.908 32.9381V33.4764H145.253V18.3397C145.271 18.0986 145.281 17.8514 145.281 17.6103V17.6058ZM139.917 24.7814V27.5776C139.917 27.8005 139.749 27.9931 139.53 28.0295C137.615 28.3313 134.503 28.7953 132.086 28.7407C130.74 28.7043 129.484 28.3571 129.375 26.0946C129.339 25.2909 130.412 23.7821 132.691 23.6168C135.48 23.4212 138.366 24.0368 139.57 24.3371C139.774 24.3871 139.916 24.5691 139.916 24.7799L139.917 24.7814Z" fill="#3D0148"/>
<path d="M20.6562 0.000183105C9.24831 0.000183105 -0.000213623 9.2487 -0.000213623 20.6566C-0.000213623 32.0645 9.24831 41.313 20.6562 41.313C32.0641 41.313 41.3126 32.0645 41.3126 20.6566C41.3126 9.2487 32.0656 0.000183105 20.6562 0.000183105ZM15.9356 29.8414H10.3553C10.4432 26.7919 9.58495 24.117 8.75396 21.5255C7.66519 18.1303 6.63707 14.9185 7.45896 10.8151H13.1242C12.4934 14.0436 12.8482 17.3432 14.1599 20.4003C15.4565 23.421 16.0524 26.5933 15.9326 29.8444H15.9341L15.9356 29.8414ZM24.432 33.5839H18.606C19.9344 29.7186 19.7827 25.5606 18.1632 21.7893C16.2344 17.2947 15.8522 12.4453 17.0532 7.73534H22.8428C21.1293 12.4407 22.3682 16.6563 23.5662 20.7369C24.7429 24.7418 25.956 28.88 24.4335 33.5824H24.432V33.5839ZM34.1249 28.4494H28.5248C28.6415 25.9852 28.1897 23.4922 27.207 21.201C25.6042 17.4691 25.0674 13.4067 25.6451 9.42158H31.2573C30.4248 13.0458 31.5227 16.5062 32.5857 19.859C33.4713 22.6537 34.3872 25.5394 34.1249 28.4494Z" fill="#3D0148"/>
<path d="M54.7672 48.5009V39.1202H57.8274C58.8182 39.1202 59.68 39.3203 60.4147 39.7184C61.1494 40.1166 61.7177 40.6681 62.1215 41.3673C62.5253 42.0683 62.7253 42.8815 62.7253 43.8031C62.7253 44.7247 62.5234 45.5304 62.1215 46.2389C61.7195 46.9493 61.1494 47.5027 60.4147 47.9008C59.68 48.299 58.8182 48.499 57.8274 48.499H54.7672V48.5009ZM56.4796 46.9904H57.8648C58.5023 46.9904 59.0556 46.8577 59.5211 46.5941C59.9866 46.3305 60.3493 45.9604 60.611 45.4856C60.8708 45.0107 61.0017 44.4518 61.0017 43.805C61.0017 43.1582 60.8708 42.588 60.611 42.1169C60.3511 41.6477 59.9885 41.2813 59.5211 41.0214C59.0556 40.7616 58.5023 40.6307 57.8648 40.6307H56.4796V46.9904Z" fill="#FF7F00"/>
<path d="M66.5675 48.6525C65.8627 48.6525 65.2458 48.4936 64.7168 48.174C64.1877 47.8543 63.7765 47.4225 63.483 46.8766C63.1895 46.3307 63.0418 45.7269 63.0418 45.0633C63.0418 44.3996 63.1913 43.764 63.4886 43.2313C63.7858 42.6985 64.1933 42.276 64.7093 41.9657C65.2253 41.6553 65.8029 41.5002 66.4404 41.5002C66.9769 41.5002 67.4498 41.588 67.8574 41.7638C68.2649 41.9395 68.6107 42.1844 68.8968 42.4947C69.1828 42.805 69.4015 43.1602 69.5511 43.5584C69.7025 43.9566 69.7773 44.3884 69.7773 44.8502C69.7773 44.9679 69.7716 45.0894 69.7586 45.2147C69.7455 45.3399 69.723 45.4502 69.6894 45.5418H64.4008V44.2819H68.7584L67.977 44.8745C68.0518 44.4875 68.0331 44.1435 67.9209 43.8426C67.8088 43.5416 67.6237 43.3004 67.3676 43.1247C67.1115 42.949 66.803 42.8611 66.4422 42.8611C66.0814 42.8611 65.7917 42.9471 65.5225 43.1191C65.2533 43.2911 65.0495 43.5434 64.9112 43.8743C64.7728 44.2052 64.7205 44.6071 64.7542 45.0764C64.7205 45.497 64.7766 45.8671 64.9243 46.1905C65.0701 46.5139 65.2888 46.7644 65.5786 46.9402C65.8683 47.1159 66.2011 47.2037 66.5806 47.2037C66.9601 47.2037 67.2797 47.1234 67.5433 46.9645C67.8069 46.8056 68.0163 46.5906 68.1658 46.3214L69.5006 46.9757C69.366 47.3028 69.1566 47.5926 68.8706 47.8449C68.5846 48.0973 68.2481 48.2936 67.8574 48.4357C67.4667 48.5778 67.0367 48.6507 66.5675 48.6507V48.6525Z" fill="#FF7F00"/>
<path d="M72.3343 48.5009L69.6404 41.6514H71.4407L73.3923 47.0409H72.725L74.6897 41.6514H76.4899L73.7961 48.5009H72.3361H72.3343Z" fill="#FF7F00"/>
<path d="M76.7666 40.8831V39.1202H78.4154V40.8831H76.7666ZM76.7666 48.5009V41.6514H78.4154V48.5009H76.7666Z" fill="#FF7F00"/>
<path d="M82.6082 48.6525C81.9278 48.6525 81.3183 48.4955 80.7762 48.1796C80.2341 47.8655 79.8078 47.4374 79.4975 46.8953C79.1872 46.3532 79.032 45.7437 79.032 45.0633C79.032 44.3828 79.1872 43.7753 79.4975 43.2369C79.8078 42.7003 80.2341 42.276 80.7762 41.9657C81.3183 41.6553 81.9278 41.5002 82.6082 41.5002C83.0943 41.5002 83.5485 41.5862 83.9673 41.7582C84.3879 41.9301 84.7506 42.1657 85.0571 42.4629C85.3637 42.7602 85.5843 43.1154 85.7189 43.5266L84.2701 44.1566C84.1449 43.8126 83.9318 43.536 83.6345 43.3247C83.3373 43.1135 82.9952 43.0107 82.6082 43.0107C82.2474 43.0107 81.9259 43.0985 81.6455 43.2743C81.3632 43.45 81.1445 43.6949 80.9837 44.0052C80.8248 44.3155 80.7444 44.6726 80.7444 45.0764C80.7444 45.4801 80.8248 45.8372 80.9837 46.1475C81.1426 46.4579 81.3632 46.7009 81.6455 46.8785C81.9259 47.0542 82.2474 47.1421 82.6082 47.1421C83.0027 47.1421 83.3466 47.0374 83.6401 46.828C83.9336 46.6186 84.1449 46.3363 84.2701 45.9849L85.7189 46.6392C85.5843 47.0262 85.3656 47.372 85.0646 47.6786C84.7618 47.9852 84.401 48.2244 83.9822 48.3964C83.5616 48.5684 83.1055 48.6544 82.6101 48.6544L82.6082 48.6525Z" fill="#FF7F00"/>
<path d="M89.5851 48.6525C88.8804 48.6525 88.2635 48.4936 87.7344 48.174C87.2054 47.8543 86.7941 47.4225 86.5006 46.8766C86.2071 46.3307 86.0594 45.7269 86.0594 45.0633C86.0594 44.3996 86.209 43.764 86.5062 43.2313C86.8035 42.6985 87.211 42.276 87.727 41.9657C88.2429 41.6553 88.8206 41.5002 89.458 41.5002C89.9945 41.5002 90.4675 41.588 90.875 41.7638C91.2826 41.9395 91.6284 42.1844 91.9144 42.4947C92.2004 42.805 92.4192 43.1602 92.5687 43.5584C92.7201 43.9566 92.7949 44.3884 92.7949 44.8502C92.7949 44.9679 92.7893 45.0894 92.7762 45.2147C92.7631 45.3399 92.7407 45.4502 92.7071 45.5418H87.4185V44.2819H91.7761L90.9947 44.8745C91.0695 44.4875 91.0508 44.1435 90.9386 43.8426C90.8264 43.5416 90.6414 43.3004 90.3853 43.1247C90.1291 42.949 89.8207 42.8611 89.4599 42.8611C89.0991 42.8611 88.8093 42.9471 88.5402 43.1191C88.271 43.2911 88.0672 43.5434 87.9289 43.8743C87.7905 44.2052 87.7382 44.6071 87.7718 45.0764C87.7382 45.497 87.7943 45.8671 87.9419 46.1905C88.0878 46.5139 88.3065 46.7644 88.5962 46.9402C88.886 47.1159 89.2187 47.2037 89.5982 47.2037C89.9777 47.2037 90.2974 47.1234 90.561 46.9645C90.8246 46.8056 91.0339 46.5906 91.1835 46.3214L92.5182 46.9757C92.3836 47.3028 92.1743 47.5926 91.8883 47.8449C91.6022 48.0973 91.2657 48.2936 90.875 48.4357C90.4843 48.5778 90.0544 48.6507 89.5851 48.6507V48.6525Z" fill="#FF7F00"/>
<path d="M95.8177 48.5012V43.1247H94.6082V41.6517H95.8177V41.4255C95.8177 40.9058 95.9243 40.4627 96.1393 40.0963C96.3524 39.7318 96.6533 39.4514 97.0403 39.2588C97.4273 39.0663 97.8834 38.9691 98.4125 38.9691C98.5134 38.9691 98.6237 38.9747 98.7471 38.9878C98.8686 39.0008 98.9714 39.0158 99.0555 39.0326V40.4552C98.9714 40.4384 98.8948 40.4272 98.8219 40.4235C98.7508 40.4197 98.6854 40.4178 98.6274 40.4178C98.2573 40.4178 97.9732 40.5001 97.7713 40.6627C97.5694 40.8272 97.4684 41.0815 97.4684 41.4255V41.6517H100.465V43.1247H97.4684V48.5012H95.8196H95.8177ZM99.8463 48.5012V41.6517H101.508V48.5012H99.8463Z" fill="#FF7F00"/>
<path d="M102.252 48.5011V41.6516H103.801V42.9995L103.676 42.7602C103.835 42.3489 104.099 42.0367 104.463 41.8217C104.828 41.6086 105.254 41.5002 105.742 41.5002C106.23 41.5002 106.693 41.6086 107.082 41.8273C107.473 42.046 107.776 42.3508 107.995 42.7396C108.213 43.1303 108.322 43.5808 108.322 44.0931V48.5011H106.673V44.4838C106.673 44.1809 106.615 43.9211 106.497 43.7023C106.379 43.4836 106.219 43.3135 106.013 43.192C105.807 43.0705 105.566 43.0088 105.289 43.0088C105.013 43.0088 104.781 43.0705 104.572 43.192C104.362 43.3135 104.198 43.4836 104.08 43.7023C103.962 43.9211 103.904 44.1809 103.904 44.4838V48.5011H102.255H102.252Z" fill="#FF7F00"/>
<path d="M111.168 48.6522C110.689 48.6522 110.274 48.5718 109.921 48.4129C109.568 48.254 109.295 48.0241 109.102 47.7269C108.91 47.4296 108.812 47.0819 108.812 46.6875C108.812 46.293 108.896 45.9715 109.065 45.6742C109.233 45.377 109.493 45.1265 109.846 44.9246C110.199 44.7227 110.644 44.5806 111.181 44.4965L113.422 44.132V45.392L111.495 45.7191C111.168 45.7771 110.925 45.8836 110.764 46.0332C110.605 46.1846 110.525 46.3809 110.525 46.6258C110.525 46.8707 110.614 47.0483 110.796 47.1866C110.975 47.3249 111.2 47.3941 111.469 47.3941C111.813 47.3941 112.117 47.3212 112.381 47.1735C112.645 47.0277 112.85 46.8239 112.998 46.5622C113.144 46.3024 113.219 46.0163 113.219 45.706V43.9432C113.219 43.6497 113.103 43.4029 112.873 43.2066C112.641 43.0103 112.338 42.9113 111.96 42.9113C111.607 42.9113 111.295 43.0066 111.022 43.1954C110.749 43.3842 110.549 43.6347 110.424 43.945L109.076 43.2908C109.21 42.93 109.422 42.6178 109.712 42.3523C110.001 42.0887 110.343 41.8794 110.738 41.7298C111.132 41.5802 111.56 41.5036 112.022 41.5036C112.585 41.5036 113.08 41.6064 113.508 41.8121C113.936 42.0177 114.271 42.3037 114.508 42.6682C114.748 43.0328 114.867 43.459 114.867 43.9469V48.5045H113.306V47.3324L113.66 47.3081C113.484 47.6016 113.273 47.8484 113.03 48.0446C112.787 48.2409 112.51 48.3924 112.198 48.4989C111.887 48.6036 111.544 48.6559 111.166 48.6559L111.168 48.6522Z" fill="#FF7F00"/>
<path d="M115.763 48.5011V41.6516H117.312V42.9995L117.187 42.7602C117.346 42.3489 117.61 42.0367 117.974 41.8217C118.339 41.6086 118.765 41.5002 119.253 41.5002C119.741 41.5002 120.204 41.6086 120.593 41.8273C120.984 42.046 121.287 42.3508 121.505 42.7396C121.724 43.1303 121.833 43.5808 121.833 44.0931V48.5011H120.184V44.4838C120.184 44.1809 120.126 43.9211 120.008 43.7023C119.89 43.4836 119.729 43.3135 119.524 43.192C119.318 43.0705 119.077 43.0088 118.8 43.0088C118.524 43.0088 118.292 43.0705 118.083 43.192C117.873 43.3135 117.709 43.4836 117.591 43.7023C117.473 43.9211 117.415 44.1809 117.415 44.4838V48.5011H115.766H115.763Z" fill="#FF7F00"/>
<path d="M125.899 48.6525C125.219 48.6525 124.609 48.4955 124.067 48.1796C123.525 47.8655 123.099 47.4374 122.789 46.8953C122.478 46.3532 122.323 45.7437 122.323 45.0633C122.323 44.3828 122.478 43.7753 122.789 43.2369C123.099 42.7003 123.525 42.276 124.067 41.9657C124.609 41.6553 125.219 41.5002 125.899 41.5002C126.385 41.5002 126.84 41.5862 127.258 41.7582C127.679 41.9301 128.042 42.1657 128.348 42.4629C128.655 42.7602 128.875 43.1154 129.01 43.5266L127.561 44.1566C127.436 43.8126 127.223 43.536 126.926 43.3247C126.628 43.1135 126.286 43.0107 125.899 43.0107C125.538 43.0107 125.217 43.0985 124.936 43.2743C124.654 43.45 124.435 43.6949 124.275 44.0052C124.116 44.3155 124.035 44.6726 124.035 45.0764C124.035 45.4801 124.116 45.8372 124.275 46.1475C124.434 46.4579 124.654 46.7009 124.936 46.8785C125.217 47.0542 125.538 47.1421 125.899 47.1421C126.294 47.1421 126.638 47.0374 126.931 46.828C127.225 46.6186 127.436 46.3363 127.561 45.9849L129.01 46.6392C128.875 47.0262 128.657 47.372 128.356 47.6786C128.053 47.9852 127.692 48.2244 127.273 48.3964C126.853 48.5684 126.396 48.6544 125.901 48.6544L125.899 48.6525Z" fill="#FF7F00"/>
<path d="M129.626 40.8831V39.1202H131.275V40.8831H129.626ZM129.626 48.5009V41.6514H131.275V48.5009H129.626Z" fill="#FF7F00"/>
<path d="M132.171 48.5011V41.6516H133.721V42.9995L133.595 42.7602C133.754 42.3489 134.018 42.0367 134.382 41.8217C134.747 41.6086 135.173 41.5002 135.661 41.5002C136.149 41.5002 136.613 41.6086 137.001 41.8273C137.392 42.046 137.695 42.3508 137.914 42.7396C138.132 43.1303 138.241 43.5808 138.241 44.0931V48.5011H136.592V44.4838C136.592 44.1809 136.534 43.9211 136.416 43.7023C136.299 43.4836 136.138 43.3135 135.932 43.192C135.726 43.0705 135.485 43.0088 135.209 43.0088C134.932 43.0088 134.7 43.0705 134.491 43.192C134.281 43.3135 134.117 43.4836 133.999 43.7023C133.881 43.9211 133.823 44.1809 133.823 44.4838V48.5011H132.175H132.171Z" fill="#FF7F00"/>
<path d="M142.331 51.2715C141.819 51.2715 141.344 51.1873 140.908 51.0191C140.471 50.8508 140.097 50.6172 139.781 50.3199C139.465 50.0227 139.237 49.6713 139.095 49.2693L140.631 48.6898C140.732 49.0095 140.932 49.2675 141.23 49.4637C141.527 49.66 141.895 49.7591 142.331 49.7591C142.667 49.7591 142.963 49.6956 143.219 49.5703C143.475 49.4451 143.675 49.2619 143.817 49.0226C143.959 48.7833 144.032 48.4954 144.032 48.1608V46.5998L144.346 46.9774C144.11 47.3887 143.796 47.699 143.402 47.9084C143.007 48.1178 142.559 48.2225 142.054 48.2225C141.417 48.2225 140.845 48.0766 140.342 47.7813C139.839 47.4878 139.444 47.084 139.158 46.5718C138.872 46.0596 138.73 45.4857 138.73 44.8463C138.73 44.207 138.872 43.6256 139.158 43.1209C139.444 42.6161 139.833 42.2198 140.329 41.93C140.824 41.6403 141.387 41.4963 142.017 41.4963C142.529 41.4963 142.979 41.6029 143.37 41.8179C143.761 42.0329 144.086 42.3413 144.346 42.7432L144.12 43.1582V41.6478H145.681V48.1589C145.681 48.7552 145.537 49.288 145.247 49.7572C144.957 50.2265 144.563 50.5966 144.064 50.8658C143.565 51.135 142.987 51.2677 142.333 51.2677L142.331 51.2715ZM142.256 46.7008C142.609 46.7008 142.918 46.6241 143.181 46.4671C143.445 46.3119 143.654 46.0951 143.804 45.8184C143.955 45.5417 144.03 45.2221 144.03 44.8613C144.03 44.5005 143.952 44.192 143.796 43.9097C143.641 43.6275 143.432 43.4087 143.166 43.248C142.903 43.0891 142.598 43.0087 142.254 43.0087C141.91 43.0087 141.6 43.0891 141.323 43.248C141.046 43.4069 140.83 43.6275 140.674 43.9097C140.519 44.1902 140.441 44.508 140.441 44.8613C140.441 45.2146 140.519 45.5286 140.674 45.8053C140.83 46.082 141.045 46.3007 141.318 46.4596C141.59 46.6185 141.903 46.6989 142.256 46.6989V46.7008Z" fill="#FF7F00"/>
</svg>
