<svg width="28" height="27" viewBox="0 0 28 27" fill="none" xmlns="http://www.w3.org/2000/svg">
<path fill-rule="evenodd" clip-rule="evenodd" d="M9.13721 17.1945C7.80004 17.1945 6.71604 16.0662 6.71604 14.6745C6.71604 13.2827 7.80004 12.1545 9.13721 12.1545C9.35068 12.1545 9.55769 12.1832 9.75486 12.2372L12.8421 9.0239C12.7867 8.81228 12.7572 8.58958 12.7572 8.35969C12.7572 6.96793 13.8412 5.83969 15.1783 5.83969C16.5155 5.83969 17.5995 6.96793 17.5995 8.35969C17.5995 9.04226 17.3388 9.66145 16.9153 10.1152L18.1845 14.7385C19.2441 15.0071 20.0307 16.0015 20.0307 17.1871C20.0307 18.5788 18.9467 19.7071 17.6096 19.7071C16.4788 19.7071 15.529 18.9002 15.2628 17.8095L10.8185 16.4878C10.383 16.9253 9.79029 17.1945 9.13721 17.1945ZM11.4873 14.0659L15.8368 15.3593L14.5863 10.8038C14.5783 10.8017 14.5703 10.7996 14.5623 10.7974L11.4738 14.0119C11.4785 14.0298 11.483 14.0478 11.4873 14.0659Z" fill="#9B4100"/>
<path fill-rule="evenodd" clip-rule="evenodd" d="M0.48291 13.4145L7.2084 0.814453H20.7389L27.4644 13.4145L20.7389 26.0145H7.2084L0.48291 13.4145ZM3.25264 13.4145L8.63303 23.4945H19.3143L24.6947 13.4145L19.3143 3.33445H8.63303L3.25264 13.4145Z" fill="#9B4100"/>
</svg>
